<?xml version="1.0" encoding="UTF-8" standalone="no"?>
<!DOCTYPE svg PUBLIC "-//W3C//DTD SVG 1.1//EN" "http://www.w3.org/Graphics/SVG/1.1/DTD/svg11.dtd">
<!-- 由 Microsoft Visio, SVG Export 生成 系统框架-小车.svg Page-1 -->
<svg xmlns="http://www.w3.org/2000/svg" xmlns:xlink="http://www.w3.org/1999/xlink" xmlns:ev="http://www.w3.org/2001/xml-events"
		xmlns:v="http://schemas.microsoft.com/visio/2003/SVGExtensions/" width="22.8858in" height="16.0354in"
		viewBox="0 0 1647.78 1154.55" xml:space="preserve" color-interpolation-filters="sRGB" class="st21">
	<v:documentProperties v:langID="2052" v:metric="true" v:viewMarkup="false">
		<v:userDefs>
			<v:ud v:nameU="msvSubprocessMaster" v:prompt="" v:val="VT4(Rectangle)"/>
			<v:ud v:nameU="msvNoAutoConnect" v:val="VT0(1):26"/>
		</v:userDefs>
	</v:documentProperties>

	<style type="text/css">
	<![CDATA[
		.st1 {fill:#bfbfbf;stroke:#4672c4;stroke-dasharray:5.25,3.75;stroke-width:0.75}
		.st2 {fill:url(#grad0-6);stroke:#3c63ac;stroke-width:0.75}
		.st3 {fill:#92d050;stroke:#3c63ac;stroke-dasharray:5.25,3.75;stroke-width:0.75}
		.st4 {fill:#00fefe;stroke:#3c63ac;stroke-dasharray:5.25,3.75;stroke-width:0.75}
		.st5 {fill:#ffc000;stroke:#3c63ac;stroke-dasharray:5.25,3.75;stroke-width:0.75}
		.st6 {fill:#3d64ac;font-family:Calibri;font-size:1.33333em}
		.st7 {fill:none;stroke:none;stroke-width:0.25}
		.st8 {fill:#4672c4;font-family:Calibri;font-size:1.00001em}
		.st9 {marker-end:url(#mrkr4-33);stroke:#4672c4;stroke-linecap:round;stroke-linejoin:round;stroke-width:1}
		.st10 {fill:#4672c4;fill-opacity:1;stroke:#4672c4;stroke-opacity:1;stroke-width:0.28409090909091}
		.st11 {font-size:1em}
		.st12 {fill:#3c63ac;font-family:Calibri;font-size:1.33333em}
		.st13 {marker-end:url(#mrkr4-33);marker-start:url(#mrkr42-152);stroke:#4672c4;stroke-linecap:round;stroke-linejoin:round;stroke-width:1}
		.st14 {marker-end:url(#mrkr42-162);marker-start:url(#mrkr4-160);stroke:#4672c4;stroke-linecap:round;stroke-linejoin:round;stroke-width:1}
		.st15 {marker-start:url(#mrkr4-160);stroke:#4672c4;stroke-linecap:round;stroke-linejoin:round;stroke-width:1}
		.st16 {marker-end:url(#mrkr42-175);marker-start:url(#mrkr4-160);stroke:#4672c4;stroke-linecap:round;stroke-linejoin:round;stroke-width:1}
		.st17 {fill:#4672c4;font-family:Calibri;font-size:1.33333em}
		.st18 {font-family:黑体;font-size:1em}
		.st19 {fill:#4672c4;font-family:Calibri;font-size:1.99999em}
		.st20 {marker-end:url(#mrkr42-162);stroke:#4672c4;stroke-linecap:round;stroke-linejoin:round;stroke-width:1}
		.st21 {fill:none;fill-rule:evenodd;font-size:12px;overflow:visible;stroke-linecap:square;stroke-miterlimit:3}
	]]>
	</style>

	<defs id="Patterns_And_Gradients">
		<linearGradient id="grad0-6" x1="0" y1="0" x2="1" y2="0" gradientTransform="rotate(60 0.5 0.5)">
			<stop offset="0" stop-color="#e8ebf4" stop-opacity="1"/>
			<stop offset="0.24" stop-color="#f4f5f9" stop-opacity="1"/>
			<stop offset="0.54" stop-color="#feffff" stop-opacity="1"/>
		</linearGradient>
	</defs>
	<defs id="Markers">
		<g id="lend4">
			<path d="M 2 1 L 0 0 L 2 -1 L 2 1 " style="stroke:none"/>
		</g>
		<marker id="mrkr4-33" class="st10" v:arrowType="4" v:arrowSize="2" v:setback="7.04" refX="-7.04" orient="auto"
				markerUnits="strokeWidth" overflow="visible">
			<use xlink:href="#lend4" transform="scale(-3.52,-3.52) "/>
		</marker>
		<g id="lend42">
			<path
					d="M 0 0.75 C -0.414214 0.75 -0.75 0.414214 -0.75 0 -0.75 -0.414214 -0.414214 -0.75 0 -0.75 0.414214 -0.75 0.75 -0.414214 0.75 0 0.75 0.414214 0.414214 0.75 0 0.75 Z "
					style="stroke:none"/>
		</g>
		<marker id="mrkr42-152" class="st10" v:arrowType="42" v:arrowSize="2" v:setback="2.28" refX="2.28" orient="auto"
				markerUnits="strokeWidth" overflow="visible">
			<use xlink:href="#lend42" transform="scale(3.52) "/>
		</marker>
		<marker id="mrkr4-160" class="st10" v:arrowType="4" v:arrowSize="2" v:setback="6.68" refX="6.68" orient="auto"
				markerUnits="strokeWidth" overflow="visible">
			<use xlink:href="#lend4" transform="scale(3.52) "/>
		</marker>
		<marker id="mrkr42-162" class="st10" v:arrowType="42" v:arrowSize="2" v:setback="2.64" refX="-2.64" orient="auto"
				markerUnits="strokeWidth" overflow="visible">
			<use xlink:href="#lend42" transform="scale(-3.52,-3.52) "/>
		</marker>
		<marker id="mrkr42-175" class="st10" v:arrowType="42" v:arrowSize="2" v:setback="0" refX="-0" orient="auto"
				markerUnits="strokeWidth" overflow="visible">
			<use xlink:href="#lend42" transform="scale(-3.52,-3.52) "/>
		</marker>
	</defs>
	<g v:mID="0" v:index="1" v:groupContext="foregroundPage">
		<v:userDefs>
			<v:ud v:nameU="msvThemeOrder" v:val="VT0(0):26"/>
		</v:userDefs>
		<title>页-1</title>
		<v:pageProperties v:drawingScale="0.0393701" v:pageScale="0.0393701" v:drawingUnits="24" v:shadowOffsetX="8.50394"
				v:shadowOffsetY="-8.50394"/>
		<v:layer v:name="连接线" v:index="0"/>
		<g id="shape226-1" v:mID="226" v:groupContext="shape" transform="translate(28.3465,-686.835)">
			<title>矩形.226</title>
			<v:userDefs>
				<v:ud v:nameU="visVersion" v:val="VT0(15):26"/>
				<v:ud v:nameU="visMasterStencil" v:prompt="" v:val="VT4(Basic_M.vssx)"/>
			</v:userDefs>
			<path d="M0 1154.55 L374.17 1154.55 L374.17 949.04 L0 949.04 L0 1154.55 Z" class="st1"/>
		</g>
		<g id="shape183-3" v:mID="183" v:groupContext="shape" transform="translate(160.914,-168.661)">
			<title>矩形.183</title>
			<v:userDefs>
				<v:ud v:nameU="visVersion" v:val="VT0(15):26"/>
				<v:ud v:nameU="visMasterStencil" v:prompt="" v:val="VT4(Basic_M.vssx)"/>
			</v:userDefs>
			<rect x="0" y="1083.93" width="216.093" height="70.6205" class="st2"/>
		</g>
		<g id="shape176-7" v:mID="176" v:groupContext="shape" transform="translate(778.905,-276.739)">
			<title>矩形.176</title>
			<v:userDefs>
				<v:ud v:nameU="visVersion" v:val="VT0(15):26"/>
				<v:ud v:nameU="visMasterStencil" v:prompt="" v:val="VT4(Basic_M.vssx)"/>
			</v:userDefs>
			<path d="M0 1154.55 L718.44 1154.55 L718.44 978.63 L0 978.63 L0 1154.55 Z" class="st3"/>
		</g>
		<g id="shape163-9" v:mID="163" v:groupContext="shape" transform="translate(671.244,-539.647)">
			<title>矩形</title>
			<v:userDefs>
				<v:ud v:nameU="visVersion" v:val="VT0(15):26"/>
				<v:ud v:nameU="visMasterStencil" v:prompt="" v:val="VT4(Basic_M.vssx)"/>
			</v:userDefs>
			<path d="M0 1154.55 L708.36 1154.55 L708.36 951.27 L0 951.27 L0 1154.55 Z" class="st4"/>
		</g>
		<g id="shape137-11" v:mID="137" v:groupContext="shape" transform="translate(1511.97,56.6929) rotate(90)">
			<title>L 形状</title>
			<v:userDefs>
				<v:ud v:nameU="visVersion" v:prompt="" v:val="VT0(15):26"/>
				<v:ud v:nameU="visMasterStencil" v:prompt="" v:val="VT4(Basic_M.vssx)"/>
			</v:userDefs>
			<path d="M0 1154.55 L187.15 1154.55 L187.15 784.14 L98.03 784.14 L98.03 371.13 L0 371.13 L0 1154.55 Z" class="st5"/>
		</g>
		<g id="shape15-13" v:mID="15" v:groupContext="shape" transform="translate(389.68,-926.841)">
			<title>椭圆形.15</title>
			<desc>/perception/lidar_centerpoint</desc>
			<v:userDefs>
				<v:ud v:nameU="visVersion" v:val="VT0(15):26"/>
				<v:ud v:nameU="visMasterStencil" v:prompt="" v:val="VT4(Basic_M.vssx)"/>
			</v:userDefs>
			<v:textBlock v:margins="rect(4,4,4,4)" v:tabSpace="42.5197"/>
			<v:textRect cx="161.331" cy="1135.19" width="282.33" height="33.8795"/>
			<path d="M0 1135.19 A161.331 19.3597 0 1 1 322.66 1135.19 A161.331 19.3597 0 1 1 0 1135.19 Z" class="st2"/>
			<text x="63.04" y="1139.99" class="st6" v:langID="2052"><v:paragraph v:horizAlign="1"/><v:tabList/>/perception/lidar_centerpoint</text>		</g>
		<g id="shape17-17" v:mID="17" v:groupContext="shape" transform="translate(389.68,-1017.19)">
			<title>椭圆形.17</title>
			<desc>/perception/multi_object_tracker</desc>
			<v:userDefs>
				<v:ud v:nameU="visVersion" v:val="VT0(15):26"/>
				<v:ud v:nameU="visMasterStencil" v:prompt="" v:val="VT4(Basic_M.vssx)"/>
			</v:userDefs>
			<v:textBlock v:margins="rect(4,4,4,4)" v:tabSpace="42.5197"/>
			<v:textRect cx="161.331" cy="1135.19" width="282.33" height="33.8795"/>
			<path d="M0 1135.19 A161.331 19.3597 0 0 1 322.66 1135.19 A161.331 19.3597 0 1 1 0 1135.19 Z" class="st2"/>
			<text x="51.29" y="1139.99" class="st6" v:langID="2052"><v:paragraph v:horizAlign="1"/><v:tabList/>/perception/multi_object_tracker</text>		</g>
		<g id="shape18-21" v:mID="18" v:groupContext="shape" transform="translate(799.253,-1017.19)">
			<title>椭圆形.18</title>
			<desc>/perception/map_based_prediction</desc>
			<v:userDefs>
				<v:ud v:nameU="visVersion" v:val="VT0(15):26"/>
				<v:ud v:nameU="visMasterStencil" v:prompt="" v:val="VT4(Basic_M.vssx)"/>
			</v:userDefs>
			<v:textBlock v:margins="rect(4,4,4,4)" v:tabSpace="42.5197"/>
			<v:textRect cx="161.331" cy="1135.19" width="282.33" height="33.8795"/>
			<path d="M0 1135.19 A161.331 19.3597 0 1 1 322.66 1135.19 A161.331 19.3597 0 1 1 0 1135.19 Z" class="st2"/>
			<text x="44.6" y="1139.99" class="st6" v:langID="2052"><v:paragraph v:horizAlign="1"/><v:tabList/>/perception/map_based_prediction</text>		</g>
		<g id="shape20-25" v:mID="20" v:groupContext="shape" transform="translate(372.878,-862.494)">
			<title>工作表.20</title>
			<desc>/rslidar_points</desc>
			<v:textBlock v:margins="rect(4,4,4,4)" v:tabSpace="42.5197"/>
			<v:textRect cx="80.6655" cy="1143.17" width="161.34" height="22.7656"/>
			<rect x="0" y="1131.79" width="161.331" height="22.7656" class="st7"/>
			<text x="44.85" y="1146.77" class="st8" v:langID="2052"><v:paragraph v:horizAlign="1"/><v:tabList/>/rslidar_points</text>		</g>
		<g id="shape23-28" v:mID="23" v:groupContext="shape" v:layerMember="0" transform="translate(543.924,-965.561)">
			<title>动态连接线.23</title>
			<path d="M7.09 1154.55 L7.09 1109.97" class="st9"/>
		</g>
		<g id="shape24-34" v:mID="24" v:groupContext="shape" transform="translate(357.414,-975.24)">
			<title>工作表.24</title>
			<desc>/perception/object_recognition/detection/objects</desc>
			<v:textBlock v:margins="rect(4,4,4,4)" v:tabSpace="42.5197"/>
			<v:textRect cx="96.7986" cy="1146.48" width="193.6" height="16.1331"/>
			<rect x="0" y="1138.42" width="193.597" height="16.1331" class="st7"/>
			<text x="6" y="1142.88" class="st8" v:langID="2052"><v:paragraph v:horizAlign="1"/><v:tabList/>/perception/object_recognition/dete<tspan
						x="64.61" dy="1.2em" class="st11">ction/objects</tspan></text>		</g>
		<g id="shape27-38" v:mID="27" v:groupContext="shape" v:layerMember="0" transform="translate(712.342,-1029.46)">
			<title>动态连接线.27</title>
			<path d="M0 1147.46 L79.87 1147.46" class="st9"/>
		</g>
		<g id="shape28-43" v:mID="28" v:groupContext="shape" transform="translate(661.684,-1047.84)">
			<title>工作表.28</title>
			<desc>/perception/object_recognition/tracking/objects</desc>
			<v:textBlock v:margins="rect(4,4,4,4)" v:tabSpace="42.5197"/>
			<v:textRect cx="96.7986" cy="1146.48" width="193.6" height="16.1331"/>
			<rect x="0" y="1138.42" width="193.597" height="16.1331" class="st7"/>
			<text x="4.89" y="1142.88" class="st8" v:langID="2052"><v:paragraph v:horizAlign="1"/><v:tabList/>/perception/object_recognition/track<tspan
						x="69.5" dy="1.2em" class="st11">ing/objects</tspan></text>		</g>
		<g id="shape29-47" v:mID="29" v:groupContext="shape" transform="translate(1132.74,-364.584)">
			<title>椭圆形.29</title>
			<desc>/control/lateral_controller_node</desc>
			<v:userDefs>
				<v:ud v:nameU="visVersion" v:val="VT0(15):26"/>
				<v:ud v:nameU="visMasterStencil" v:prompt="" v:val="VT4(Basic_M.vssx)"/>
			</v:userDefs>
			<v:textBlock v:margins="rect(4,4,4,4)" v:tabSpace="42.5197"/>
			<v:textRect cx="146.547" cy="1138.66" width="256.46" height="27.8173"/>
			<path d="M0 1138.66 A146.547 15.8956 0 0 1 293.09 1138.66 A146.547 15.8956 0 1 1 0 1138.66 Z" class="st2"/>
			<text x="39.75" y="1143.46" class="st6" v:langID="2052"><v:paragraph v:horizAlign="1"/><v:tabList/>/control/lateral_controller_node</text>		</g>
		<g id="shape30-51" v:mID="30" v:groupContext="shape" transform="translate(1123.46,-290.403)">
			<title>椭圆形.30</title>
			<desc>/control/longitudinal_controller_node</desc>
			<v:userDefs>
				<v:ud v:nameU="visVersion" v:val="VT0(15):26"/>
				<v:ud v:nameU="visMasterStencil" v:prompt="" v:val="VT4(Basic_M.vssx)"/>
			</v:userDefs>
			<v:textBlock v:margins="rect(4,4,4,4)" v:tabSpace="42.5197"/>
			<v:textRect cx="170.204" cy="1138.66" width="297.86" height="27.8173"/>
			<path d="M0 1138.66 A170.204 15.8956 0 0 1 340.41 1138.66 A170.204 15.8956 0 0 1 0 1138.66 Z" class="st2"/>
			<text x="45.54" y="1143.46" class="st6" v:langID="2052"><v:paragraph v:horizAlign="1"/><v:tabList/>/control/longitudinal_controller_node</text>		</g>
		<g id="shape31-55" v:mID="31" v:groupContext="shape" transform="translate(866.137,-327.493)">
			<title>椭圆形.31</title>
			<desc>/control/lation_muxer_node</desc>
			<v:userDefs>
				<v:ud v:nameU="visVersion" v:val="VT0(15):26"/>
				<v:ud v:nameU="visMasterStencil" v:prompt="" v:val="VT4(Basic_M.vssx)"/>
			</v:userDefs>
			<v:textBlock v:margins="rect(4,4,4,4)" v:tabSpace="42.5197"/>
			<v:textRect cx="132.614" cy="1138.66" width="232.08" height="27.8173"/>
			<path d="M0 1138.66 A132.614 15.8956 0 0 1 265.23 1138.66 A132.614 15.8956 0 0 1 0 1138.66 Z" class="st2"/>
			<text x="39.1" y="1143.46" class="st6" v:langID="2052"><v:paragraph v:horizAlign="1"/><v:tabList/>/control/lation_muxer_node</text>		</g>
		<g id="shape34-59" v:mID="34" v:groupContext="shape" v:layerMember="0" transform="translate(991.664,-352.198)">
			<title>动态连接线.34</title>
			<path d="M7.09 1147.46 L7.09 1139.02 L7.09 1140.42" class="st9"/>
		</g>
		<g id="shape35-64" v:mID="35" v:groupContext="shape" transform="translate(898.806,-364.584)">
			<title>工作表.35</title>
			<desc>/control/output/lateral/control_cmd</desc>
			<v:textBlock v:margins="rect(4,4,4,4)" v:tabSpace="42.5197"/>
			<v:textRect cx="120.998" cy="1127.97" width="242" height="53.1539"/>
			<rect x="0" y="1101.4" width="241.996" height="53.1539" class="st7"/>
			<text x="31.04" y="1131.57" class="st8" v:langID="2052"><v:paragraph v:horizAlign="1"/><v:tabList/>/control/output/lateral/control_cmd</text>		</g>
		<g id="shape37-67" v:mID="37" v:groupContext="shape" transform="translate(858.473,-269.04)">
			<title>工作表.37</title>
			<desc>/control/output/longitudinal/control_cmd</desc>
			<v:textBlock v:margins="rect(4,4,4,4)" v:tabSpace="42.5197"/>
			<v:textRect cx="132.614" cy="1127.97" width="265.23" height="53.1539"/>
			<rect x="0" y="1101.4" width="265.228" height="53.1539" class="st7"/>
			<text x="29.25" y="1131.57" class="st8" v:langID="2052"><v:paragraph v:horizAlign="1"/><v:tabList/>/control/output/longitudinal/control_cmd</text>		</g>
		<g id="shape38-70" v:mID="38" v:groupContext="shape" v:layerMember="0" transform="translate(1123.46,-306.299)">
			<title>动态连接线.38</title>
			<path d="M0 1154.55 L-124.71 1154.55 L-124.71 1140.4" class="st9"/>
		</g>
		<g id="shape39-75" v:mID="39" v:groupContext="shape" v:layerMember="0" transform="translate(1132.74,-380.479)">
			<title>动态连接线.39</title>
			<path d="M0 1154.55 L-133.99 1154.55 L-133.99 1168.71" class="st9"/>
		</g>
		<g id="shape41-80" v:mID="41" v:groupContext="shape" v:layerMember="0" transform="translate(866.137,-343.389)">
			<title>动态连接线.41</title>
			<path d="M0 1154.55 L-738.58 1154.55 L-738.58 775.53 L-695.72 775.53" class="st9"/>
		</g>
		<g id="shape42-85" v:mID="42" v:groupContext="shape" transform="translate(751.181,-327.493)">
			<title>工作表.42</title>
			<desc>/cmd_vel</desc>
			<v:textBlock v:margins="rect(4,4,4,4)" v:tabSpace="42.5197"/>
			<v:textRect cx="65.5444" cy="1126.32" width="131.09" height="56.4658"/>
			<rect x="0" y="1098.09" width="131.089" height="56.4658" class="st7"/>
			<text x="42.68" y="1129.92" class="st8" v:langID="2052"><v:paragraph v:horizAlign="1"/><v:tabList/>/cmd_vel</text>		</g>
		<g id="shape63-88" v:mID="63" v:groupContext="shape" transform="translate(714.923,-581.593)">
			<title>椭圆形.63</title>
			<desc>/mission_planner</desc>
			<v:userDefs>
				<v:ud v:nameU="visVersion" v:val="VT0(15):26"/>
				<v:ud v:nameU="visMasterStencil" v:prompt="" v:val="VT4(Basic_M.vssx)"/>
			</v:userDefs>
			<v:textBlock v:margins="rect(4,4,4,4)" v:tabSpace="42.5197"/>
			<v:textRect cx="80.6655" cy="1140.03" width="141.17" height="25.4096"/>
			<path d="M0 1140.03 A80.6655 14.5198 0 0 1 161.33 1140.03 A80.6655 14.5198 0 0 1 0 1140.03 Z" class="st2"/>
			<text x="23.8" y="1144.83" class="st12" v:langID="2052"><v:paragraph v:horizAlign="1"/><v:tabList/>/mission_planner</text>		</g>
		<g id="shape64-92" v:mID="64" v:groupContext="shape" transform="translate(1002.09,-581.593)">
			<title>椭圆形.64</title>
			<desc>/lane_planner</desc>
			<v:userDefs>
				<v:ud v:nameU="visVersion" v:val="VT0(15):26"/>
				<v:ud v:nameU="visMasterStencil" v:prompt="" v:val="VT4(Basic_M.vssx)"/>
			</v:userDefs>
			<v:textBlock v:margins="rect(4,4,4,4)" v:tabSpace="42.5197"/>
			<v:textRect cx="72.5989" cy="1140.03" width="127.05" height="25.4096"/>
			<path d="M0 1140.03 A72.5989 14.5198 0 0 1 145.2 1140.03 A72.5989 14.5198 0 1 1 0 1140.03 Z" class="st2"/>
			<text x="26.63" y="1144.83" class="st12" v:langID="2052"><v:paragraph v:horizAlign="1"/><v:tabList/>/lane_planner</text>		</g>
		<g id="shape66-96" v:mID="66" v:groupContext="shape" transform="translate(1218.28,-686.076)">
			<title>椭圆形.66</title>
			<desc>/frenet_planner</desc>
			<v:userDefs>
				<v:ud v:nameU="visVersion" v:val="VT0(15):26"/>
				<v:ud v:nameU="visMasterStencil" v:prompt="" v:val="VT4(Basic_M.vssx)"/>
			</v:userDefs>
			<v:textBlock v:margins="rect(4,4,4,4)" v:tabSpace="42.5197"/>
			<v:textRect cx="76.6322" cy="1141.26" width="134.11" height="23.2548"/>
			<path d="M0 1141.26 A76.6322 13.2885 0 0 1 153.26 1141.26 A76.6322 13.2885 0 1 1 0 1141.26 Z" class="st2"/>
			<text x="24.44" y="1146.06" class="st12" v:langID="2052"><v:paragraph v:horizAlign="1"/><v:tabList/>/frenet_planner</text>		</g>
		<g id="shape67-100" v:mID="67" v:groupContext="shape" v:layerMember="0" transform="translate(876.254,-589.026)">
			<title>动态连接线.67</title>
			<path d="M0 1147.46 L118.8 1147.46" class="st9"/>
		</g>
		<g id="shape68-105" v:mID="68" v:groupContext="shape" transform="translate(869.801,-594.499)">
			<title>工作表.68</title>
			<desc>/mission_planner/ output/route</desc>
			<v:textBlock v:margins="rect(4,4,4,4)" v:tabSpace="42.5197"/>
			<v:textRect cx="64.5324" cy="1136.15" width="129.07" height="36.8115"/>
			<rect x="0" y="1117.74" width="129.065" height="36.8115" class="st7"/>
			<text x="19.57" y="1132.55" class="st8" v:langID="2052"><v:paragraph v:horizAlign="1"/><v:tabList/>/mission_planner/<v:newlineChar/><tspan
						x="32.17" dy="1.2em" class="st11">output/route</tspan></text>		</g>
		<g id="shape75-109" v:mID="75" v:groupContext="shape" v:layerMember="0" transform="translate(1371.54,-699.364)">
			<title>动态连接线.75</title>
			<path d="M0 1154.55 L187.51 1154.55 L187.51 1473.44 L61.33 1473.44" class="st9"/>
		</g>
		<g id="shape78-114" v:mID="78" v:groupContext="shape" transform="translate(1393.8,-700.978)">
			<title>工作表.78</title>
			<desc>/planning/scenario_planning/lane_driving/trajectory</desc>
			<v:textBlock v:margins="rect(4,4,4,4)" v:tabSpace="42.5197"/>
			<v:textRect cx="96.7986" cy="1138.42" width="193.6" height="32.2662"/>
			<rect x="0" y="1122.28" width="193.597" height="32.2662" class="st7"/>
			<text x="24.21" y="1134.82" class="st8" v:langID="1033"><v:paragraph v:horizAlign="1"/><v:tabList/>/planning/scenario_planning/<tspan
						x="40.5" dy="1.2em" class="st11">lane_driving/trajectory</tspan></text>		</g>
		<g id="shape82-118" v:mID="82" v:groupContext="shape" transform="translate(1150.52,-591.273)">
			<title>工作表.82</title>
			<desc>/planning/trajectory</desc>
			<v:textBlock v:margins="rect(4,4,4,4)" v:tabSpace="42.5197"/>
			<v:textRect cx="64.5324" cy="1140.03" width="129.07" height="29.0396"/>
			<rect x="0" y="1125.51" width="129.065" height="29.0396" class="st7"/>
			<text x="14.92" y="1143.63" class="st8" v:langID="2052"><v:paragraph v:horizAlign="1"/><v:tabList/>/planning/trajectory</text>		</g>
		<g id="shape87-121" v:mID="87" v:groupContext="shape" v:layerMember="0" transform="translate(1121.91,-1036.55)">
			<title>动态连接线.87</title>
			<path d="M0 1154.55 L172.99 1154.55 L172.99 1471.4" class="st9"/>
		</g>
		<g id="shape90-126" v:mID="90" v:groupContext="shape" transform="translate(1137.61,-1039.77)">
			<title>工作表.90</title>
			<desc>/perception/object_recognition/objects</desc>
			<v:textBlock v:margins="rect(4,4,4,4)" v:tabSpace="42.5197"/>
			<v:textRect cx="86.5093" cy="1135.19" width="173.02" height="38.7194"/>
			<rect x="0" y="1115.83" width="173.019" height="38.7194" class="st7"/>
			<text x="6.84" y="1131.59" class="st8" v:langID="1033"><v:paragraph v:horizAlign="1"/><v:tabList/>/perception/object_recognition/<tspan
						x="68.88" dy="1.2em" class="st11">objects</tspan></text>		</g>
		<g id="shape95-130" v:mID="95" v:groupContext="shape" transform="translate(1400.87,-492.21)">
			<title>工作表.95</title>
			<desc>/vehicle_kinematic_state</desc>
			<v:textBlock v:margins="rect(4,4,4,4)" v:tabSpace="42.5197"/>
			<v:textRect cx="72.5894" cy="1135.19" width="145.18" height="38.7194"/>
			<rect x="0" y="1115.83" width="145.179" height="38.7194" class="st7"/>
			<text x="11.11" y="1138.79" class="st8" v:langID="2052"><v:paragraph v:horizAlign="1"/><v:tabList/>/vehicle_kinematic_state</text>		</g>
		<g id="shape111-133" v:mID="111" v:groupContext="shape" transform="translate(589.606,-584.682)">
			<title>工作表.111</title>
			<desc>/odom</desc>
			<v:textBlock v:margins="rect(4,4,4,4)" v:tabSpace="42.5197"/>
			<v:textRect cx="44.2047" cy="1130.35" width="88.41" height="48.3993"/>
			<rect x="0" y="1106.15" width="88.4094" height="48.3993" class="st7"/>
			<text x="27.61" y="1133.95" class="st8" v:langID="2052"><v:paragraph v:horizAlign="1"/><v:tabList/>/odom</text>		</g>
		<g id="shape117-136" v:mID="117" v:groupContext="shape" v:layerMember="0" transform="translate(1147.29,-596.113)">
			<title>动态连接线.117</title>
			<path d="M0 1154.55 L147.62 1154.55 L147.62 1071.63" class="st9"/>
		</g>
		<g id="shape122-141" v:mID="122" v:groupContext="shape" transform="translate(696.323,-819.599)">
			<title>椭圆形.122</title>
			<desc>/had_maps/Lanelet2MapProvider</desc>
			<v:userDefs>
				<v:ud v:nameU="visVersion" v:val="VT0(15):26"/>
				<v:ud v:nameU="visMasterStencil" v:prompt="" v:val="VT4(Basic_M.vssx)"/>
			</v:userDefs>
			<v:textBlock v:margins="rect(4,4,4,4)" v:tabSpace="42.5197"/>
			<v:textRect cx="96.7986" cy="1127.97" width="169.4" height="46.5097"/>
			<path d="M0 1127.97 A96.7986 26.577 0 0 1 193.6 1127.97 A96.7986 26.577 0 0 1 0 1127.97 Z" class="st2"/>
			<text x="56.84" y="1123.17" class="st12" v:langID="1033"><v:paragraph v:horizAlign="1"/><v:tabList/>/had_maps/<tspan
						x="26.43" dy="1.2em" class="st11">Lanelet2MapProvider</tspan></text>		</g>
		<g id="shape145-146" v:mID="145" v:groupContext="shape" v:layerMember="0" transform="translate(689.11,-604.813)">
			<title>动态连接线.145</title>
			<path d="M0 1162.3 L0 1162.66 L0 1200.25 L605.8 1200.25 L605.8 1170.29" class="st13"/>
		</g>
		<g id="shape156-154" v:mID="156" v:groupContext="shape" v:layerMember="0" transform="translate(1463.87,-306.299)">
			<title>动态连接线.156</title>
			<path d="M6.68 1154.55 L7.04 1154.55 L95.19 1154.55 L95.19 1081.27" class="st14"/>
		</g>
		<g id="shape159-163" v:mID="159" v:groupContext="shape" v:layerMember="0" transform="translate(801.442,-610.632)">
			<title>动态连接线.159</title>
			<path d="M-5.93 1147.87 L-5.94 1147.51 L-8.32 945.58" class="st15"/>
		</g>
		<g id="shape160-168" v:mID="160" v:groupContext="shape" v:layerMember="0" transform="translate(1074.69,-610.632)">
			<title>动态连接线.160</title>
			<path d="M0 1147.87 L0 1147.51 L0 1086.85 L-277.54 1086.85 A2.3622 2.3622 -180 0 0 -282.26 1086.85 L-282.43 1086.85"
					class="st16"/>
		</g>
		<g id="shape165-176" v:mID="165" v:groupContext="shape" transform="translate(789.96,-796.867)">
			<title>工作表.165</title>
			<desc>/map/vector_map</desc>
			<v:textBlock v:margins="rect(4,4,4,4)" v:tabSpace="42.5197"/>
			<v:textRect cx="58.5632" cy="1146.97" width="117.13" height="15.1651"/>
			<rect x="0" y="1139.39" width="117.126" height="15.1651" class="st7"/>
			<text x="13.8" y="1150.57" class="st8" v:langID="1033"><v:paragraph v:horizAlign="1"/><v:tabList/>/map/vector_map</text>		</g>
		<g id="shape179-179" v:mID="179" v:groupContext="shape" transform="translate(170.594,-182.145)">
			<title>椭圆形.179</title>
			<desc>/base_link_to_rslidar</desc>
			<v:userDefs>
				<v:ud v:nameU="visVersion" v:val="VT0(15):26"/>
				<v:ud v:nameU="visMasterStencil" v:prompt="" v:val="VT4(Basic_M.vssx)"/>
			</v:userDefs>
			<v:textBlock v:margins="rect(4,4,4,4)" v:tabSpace="42.5197"/>
			<v:textRect cx="96.7986" cy="1135.19" width="169.4" height="33.8795"/>
			<path d="M0 1135.19 A96.7986 19.3597 0 0 1 193.6 1135.19 A96.7986 19.3597 0 0 1 0 1135.19 Z" class="st2"/>
			<text x="27.79" y="1139.99" class="st12" v:langID="2052"><v:paragraph v:horizAlign="1"/><v:tabList/>/base_link_to_rslidar</text>		</g>
		<g id="shape186-183" v:mID="186" v:groupContext="shape" transform="translate(390.698,-166.195)">
			<title>工作表.186</title>
			<desc>/earth_to_map_tfpublish a transform between &#34;earth&#34; and &#34;map&#34;...</desc>
			<v:textBlock v:margins="rect(4,4,4,4)" v:tabSpace="42.5197"/>
			<v:textRect cx="258.195" cy="1119.24" width="516.39" height="70.6205"/>
			<rect x="0" y="1083.93" width="516.389" height="70.6205" class="st7"/>
			<text x="4" y="1096.07" class="st17" v:langID="1033"><v:paragraph/><v:tabList/>/earth_to_map_tf<tspan class="st18"
						v:langID="2052">：</tspan>publish a transform between <tspan class="st11" v:langID="2052">&#34;earth&#34;</tspan> and <tspan
						class="st11" v:langID="2052">&#34;</tspan>map<tspan class="st11" v:langID="2052">&#34;<v:newlineChar/></tspan><tspan
						x="4" dy="1.331em" class="st11" v:langID="2052">/hunter</tspan><tspan class="st18" v:langID="2052">：</tspan><tspan
						class="st11" v:langID="2052">publish a tr</tspan>ansform <tspan class="st11" v:langID="2052"> </tspan>between <tspan
						class="st11" v:langID="2052">&#34;map&#34; and &#34;</tspan>base_link<tspan class="st11" v:langID="2052">&#34;<v:newlineChar/></tspan><tspan
						x="4" dy="1.331em" class="st11" v:langID="2052">/base_link_to_rslidar</tspan><tspan class="st18"
						v:langID="2052">：</tspan>publish a transform<tspan class="st11" v:langID="2052"> </tspan>between <tspan
						class="st11" v:langID="2052">&#34;</tspan>base_link<tspan class="st11" v:langID="2052">&#34; and &#34;rslidar&#34;</tspan><v:newlineChar/></text>		</g>
		<g id="shape207-201" v:mID="207" v:groupContext="shape" transform="translate(340.157,-1070.85)">
			<title>工作表.207</title>
			<desc>perception</desc>
			<v:textBlock v:margins="rect(4,4,4,4)" v:tabSpace="42.5197"/>
			<v:textRect cx="76" cy="1144.55" width="152" height="20"/>
			<rect x="0" y="1134.55" width="152" height="20" class="st7"/>
			<text x="22.79" y="1151.75" class="st19" v:langID="2052"><v:paragraph v:horizAlign="1"/><v:tabList/>perception</text>		</g>
		<g id="shape209-204" v:mID="209" v:groupContext="shape" transform="translate(751.181,-424.452)">
			<title>工作表.209</title>
			<desc>control</desc>
			<v:textBlock v:margins="rect(4,4,4,4)" v:tabSpace="42.5197"/>
			<v:textRect cx="76" cy="1144.55" width="152" height="20"/>
			<rect x="0" y="1134.55" width="152" height="20" class="st7"/>
			<text x="41.01" y="1151.75" class="st19" v:langID="2052"><v:paragraph v:horizAlign="1"/><v:tabList/>control</text>		</g>
		<g id="shape210-207" v:mID="210" v:groupContext="shape" transform="translate(646.835,-715.181)">
			<title>工作表.210</title>
			<desc>planning</desc>
			<v:textBlock v:margins="rect(4,4,4,4)" v:tabSpace="42.5197"/>
			<v:textRect cx="76" cy="1144.55" width="152" height="20"/>
			<rect x="0" y="1134.55" width="152" height="20" class="st7"/>
			<text x="33.88" y="1151.75" class="st19" v:langID="2052"><v:paragraph v:horizAlign="1"/><v:tabList/>planning</text>		</g>
		<g id="shape211-210" v:mID="211" v:groupContext="shape" transform="translate(36.8504,-848.409)">
			<title>椭圆形.211</title>
			<desc>/rslidar_sdk/rslidar_points_destination_0</desc>
			<v:userDefs>
				<v:ud v:nameU="visVersion" v:val="VT0(15):26"/>
				<v:ud v:nameU="visMasterStencil" v:prompt="" v:val="VT4(Basic_M.vssx)"/>
			</v:userDefs>
			<v:textBlock v:margins="rect(4,4,4,4)" v:tabSpace="42.5197"/>
			<v:textRect cx="169.618" cy="1140.03" width="296.84" height="25.4096"/>
			<path d="M0 1140.03 A169.618 14.5198 0 1 1 339.24 1140.03 A169.618 14.5198 0 1 1 0 1140.03 Z" class="st2"/>
			<text x="34.58" y="1144.83" class="st12" v:langID="2052"><v:paragraph v:horizAlign="1"/><v:tabList/>/rslidar_sdk/rslidar_points_destination_0</text>		</g>
		<g id="shape212-214" v:mID="212" v:groupContext="shape" v:layerMember="0" transform="translate(376.087,-862.929)">
			<title>动态连接线</title>
			<path d="M0 1154.55 L174.92 1154.55 L174.92 1097.68" class="st9"/>
		</g>
		<g id="shape213-219" v:mID="213" v:groupContext="shape" transform="translate(128.48,-778.152)">
			<title>椭圆形.213</title>
			<desc>/nmea_navsat_driver</desc>
			<v:userDefs>
				<v:ud v:nameU="visVersion" v:val="VT0(15):26"/>
				<v:ud v:nameU="visMasterStencil" v:prompt="" v:val="VT4(Basic_M.vssx)"/>
			</v:userDefs>
			<v:textBlock v:margins="rect(4,4,4,4)" v:tabSpace="42.5197"/>
			<v:textRect cx="91.6654" cy="1140.03" width="160.42" height="25.4096"/>
			<path d="M0 1140.03 A91.6654 14.5198 0 0 1 183.33 1140.03 A91.6654 14.5198 0 1 1 0 1140.03 Z" class="st2"/>
			<text x="21.7" y="1144.83" class="st12" v:langID="2052"><v:paragraph v:horizAlign="1"/><v:tabList/>/nmea_navsat_driver</text>		</g>
		<g id="shape214-223" v:mID="214" v:groupContext="shape" transform="translate(177.459,-707.895)">
			<title>椭圆形.214</title>
			<desc>/hunter</desc>
			<v:userDefs>
				<v:ud v:nameU="visVersion" v:val="VT0(15):26"/>
				<v:ud v:nameU="visMasterStencil" v:prompt="" v:val="VT4(Basic_M.vssx)"/>
			</v:userDefs>
			<v:textBlock v:margins="rect(4,4,4,4)" v:tabSpace="42.5197"/>
			<v:textRect cx="42.687" cy="1140.03" width="74.71" height="25.4096"/>
			<path d="M0 1140.03 A42.687 14.5198 0 0 1 85.37 1140.03 A42.687 14.5198 0 1 1 0 1140.03 Z" class="st2"/>
			<text x="17.54" y="1144.83" class="st12" v:langID="2052"><v:paragraph v:horizAlign="1"/><v:tabList/>/hunter</text>		</g>
		<g id="shape215-227" v:mID="215" v:groupContext="shape" transform="translate(486.718,-773.312)">
			<title>椭圆形.215</title>
			<desc>/earth_to_map_tf</desc>
			<v:userDefs>
				<v:ud v:nameU="visVersion" v:val="VT0(15):26"/>
				<v:ud v:nameU="visMasterStencil" v:prompt="" v:val="VT4(Basic_M.vssx)"/>
			</v:userDefs>
			<v:textBlock v:margins="rect(4,4,4,4)" v:tabSpace="42.5197"/>
			<v:textRect cx="96.7986" cy="1135.19" width="169.4" height="33.8795"/>
			<path d="M0 1135.19 A96.7986 19.3597 0 1 1 193.6 1135.19 A96.7986 19.3597 0 1 1 -0 1135.19 Z" class="st2"/>
			<text x="37.83" y="1139.99" class="st12" v:langID="1033"><v:paragraph v:horizAlign="1"/><v:tabList/>/earth_to_map_tf</text>		</g>
		<g id="shape216-231" v:mID="216" v:groupContext="shape" v:layerMember="0" transform="translate(311.811,-785.585)">
			<title>动态连接线.216</title>
			<path d="M0 1147.46 L167.87 1147.46" class="st9"/>
		</g>
		<g id="shape217-236" v:mID="217" v:groupContext="shape" v:layerMember="0" transform="translate(583.516,-773.312)">
			<title>动态连接线.217</title>
			<path d="M0 1154.55 L0 1205.45 L-313.64 1205.45" class="st9"/>
		</g>
		<g id="shape218-241" v:mID="218" v:groupContext="shape" transform="translate(263.866,-791.628)">
			<title>工作表.218</title>
			<desc>/fix</desc>
			<v:textBlock v:margins="rect(4,4,4,4)" v:tabSpace="42.5197"/>
			<v:textRect cx="80.6655" cy="1143.17" width="161.34" height="22.7656"/>
			<rect x="0" y="1131.79" width="161.331" height="22.7656" class="st7"/>
			<text x="72.54" y="1146.77" class="st8" v:langID="2052"><v:paragraph v:horizAlign="1"/><v:tabList/>/fix</text>		</g>
		<g id="shape219-244" v:mID="219" v:groupContext="shape" transform="translate(263.866,-720.762)">
			<title>工作表.219</title>
			<desc>/gnss_pose</desc>
			<v:textBlock v:margins="rect(4,4,4,4)" v:tabSpace="42.5197"/>
			<v:textRect cx="80.6655" cy="1143.17" width="161.34" height="22.7656"/>
			<rect x="0" y="1131.79" width="161.331" height="22.7656" class="st7"/>
			<text x="53.04" y="1146.77" class="st8" v:langID="2052"><v:paragraph v:horizAlign="1"/><v:tabList/>/gnss_pose</text>		</g>
		<g id="shape220-247" v:mID="220" v:groupContext="shape" transform="translate(411.024,-800.22)">
			<title>工作表.220</title>
			<desc>/heading</desc>
			<v:textBlock v:margins="rect(4,4,4,4)" v:tabSpace="42.5197"/>
			<v:textRect cx="35.555" cy="1148.65" width="71.11" height="11.8112"/>
			<rect x="0" y="1142.74" width="71.11" height="11.8112" class="st7"/>
			<text x="13.72" y="1152.25" class="st8" v:langID="2052"><v:paragraph v:horizAlign="1"/><v:tabList/>/heading</text>		</g>
		<g id="shape223-250" v:mID="223" v:groupContext="shape" v:layerMember="0" transform="translate(220.146,-707.895)">
			<title>动态连接线.223</title>
			<path d="M0 1154.55 L0 1266.33 L466.6 1266.33 A2.3622 2.3622 0 0 1 471.33 1266.33 L487.74 1266.33" class="st9"/>
		</g>
		<g id="shape224-255" v:mID="224" v:groupContext="shape" v:layerMember="0" transform="translate(220.146,-598.961)">
			<title>动态连接线.224</title>
			<path d="M-0 1156.83 L-0 1157.19 L-0 1250.93 L1331.87 1250.93" class="st13"/>
		</g>
		<g id="shape228-262" v:mID="228" v:groupContext="shape" transform="translate(18,-691.008)">
			<title>工作表.228</title>
			<desc>driver</desc>
			<v:textBlock v:margins="rect(4,4,4,4)" v:tabSpace="42.5197"/>
			<v:textRect cx="44.2047" cy="1144.55" width="88.41" height="20"/>
			<rect x="0" y="1134.55" width="88.4094" height="20" class="st7"/>
			<text x="15.39" y="1151.75" class="st19" v:langID="2052"><v:paragraph v:horizAlign="1"/><v:tabList/>driver</text>		</g>
		<g id="shape238-265" v:mID="238" v:groupContext="shape" v:layerMember="0" transform="translate(793.699,-770.69)">
			<title>动态连接线.238</title>
			<path d="M2.28 1154.55 L2.64 1154.55 L166.88 1154.55 L166.88 915.09" class="st13"/>
		</g>
		<g id="shape242-272" v:mID="242" v:groupContext="shape" transform="translate(598.11,-642.898)">
			<title>工作表.242</title>
			<desc>/planning/mission_planning/goal</desc>
			<v:textBlock v:margins="rect(4,4,4,4)" v:tabSpace="42.5197"/>
			<v:textRect cx="91.6654" cy="1140.38" width="183.34" height="28.3465"/>
			<rect x="0" y="1126.2" width="183.331" height="28.3465" class="st7"/>
			<text x="10.81" y="1143.98" class="st8" v:langID="1033"><v:paragraph v:horizAlign="1"/><v:tabList/>/planning/mission_planning/goal</text>		</g>
		<g id="shape245-275" v:mID="245" v:groupContext="shape" transform="translate(538.583,-619.769)">
			<title>椭圆形.245</title>
			<desc>/rviz2</desc>
			<v:userDefs>
				<v:ud v:nameU="visVersion" v:val="VT0(15):26"/>
				<v:ud v:nameU="visMasterStencil" v:prompt="" v:val="VT4(Basic_M.vssx)"/>
			</v:userDefs>
			<v:textBlock v:margins="rect(4,4,4,4)" v:tabSpace="42.5197"/>
			<v:textRect cx="28.3465" cy="1135.19" width="49.61" height="33.8795"/>
			<path d="M0 1135.19 A28.3465 19.3597 0 1 1 56.69 1135.19 A28.3465 19.3597 0 0 1 0 1135.19 Z" class="st2"/>
			<text x="9.8" y="1139.99" class="st12" v:langID="2052"><v:paragraph v:horizAlign="1"/><v:tabList/>/rviz2</text>		</g>
		<g id="shape247-279" v:mID="247" v:groupContext="shape" v:layerMember="0" transform="translate(595.276,-646.163)">
			<title>动态连接线.247</title>
			<path d="M0 1161.59 L3.17 1161.59 L3.17 1161.69 L197.34 1161.69" class="st20"/>
		</g>
	</g>
</svg>
